<?xml version="1.0" standalone="no"?>
<!DOCTYPE svg PUBLIC "-//W3C//DTD SVG 20010904//EN"
 "http://www.w3.org/TR/2001/REC-SVG-20010904/DTD/svg10.dtd">
<svg version="1.0" xmlns="http://www.w3.org/2000/svg"
 width="2000.000000pt" height="2000.000000pt" viewBox="0 0 2000.000000 2000.000000"
 preserveAspectRatio="xMidYMid meet">
<metadata>
Created by potrace 1.14, written by Peter Selinger 2001-2017
</metadata>
<g transform="translate(0.000000,2000.000000) scale(0.100000,-0.100000)"
fill="#000000" stroke="none">
<path d="M3930 16770 c-898 -56 -1706 -400 -2304 -980 -295 -286 -497 -563
-676 -925 -173 -352 -268 -667 -327 -1085 -26 -181 -26 -719 0 -910 124 -930
534 -1762 1207 -2454 686 -706 1607 -1192 2530 -1336 214 -33 206 -26 93 -89
-132 -73 -364 -231 -493 -334 -642 -516 -1085 -1208 -1254 -1963 -57 -251 -70
-378 -70 -674 0 -315 15 -447 84 -715 204 -802 775 -1465 1543 -1795 707 -303
1525 -328 2297 -70 935 312 1697 963 2129 1819 159 314 254 602 312 936 11 66
21 120 22 121 1 1 70 -14 154 -34 l152 -36 3 -411 3 -410 219 -360 c120 -198
219 -361 220 -362 1 -2 174 102 182 109 3 3 -86 156 -198 339 l-203 334 -3
364 -3 363 53 -6 c146 -18 282 -25 476 -26 l212 0 0 -369 0 -370 221 -368
c122 -202 223 -369 224 -371 3 -4 156 87 174 103 11 11 -22 71 -193 355 l-206
341 0 349 0 350 23 4 c12 3 74 12 137 21 130 18 334 62 457 98 88 26 93 24 93
-28 0 -13 11 -86 25 -162 124 -679 460 -1309 970 -1818 568 -568 1274 -926
2060 -1045 178 -27 594 -38 771 -21 601 60 1122 266 1564 617 206 164 450 440
595 674 73 118 192 363 240 494 50 137 110 375 136 547 30 193 33 608 6 794
-60 403 -153 706 -324 1045 -192 384 -403 672 -709 970 -208 202 -394 349
-632 498 l-110 69 187 46 c237 59 375 103 581 184 810 318 1523 872 2043 1585
346 476 603 1056 717 1618 57 283 74 447 74 750 1 281 -7 388 -45 615 -81 483
-262 932 -540 1340 -717 1054 -1991 1607 -3384 1469 -1385 -136 -2688 -972
-3414 -2189 -569 -954 -733 -2040 -458 -3026 l24 -86 -71 -28 c-39 -15 -115
-52 -169 -82 l-98 -55 -147 41 c-146 40 -351 84 -447 96 -103 13 -91 -15 -98
242 -3 126 -15 350 -27 498 -22 301 -26 572 -9 727 18 171 58 304 166 559 55
129 103 244 107 257 4 12 10 22 14 22 8 0 95 -146 100 -167 2 -8 -6 -13 -22
-13 -14 0 -28 -5 -31 -11 -4 -6 3 -64 16 -130 21 -111 25 -120 44 -115 11 3
74 15 139 27 106 19 124 26 155 55 33 30 36 37 36 86 -1 51 -9 66 -180 352
-192 321 -205 336 -282 336 -71 0 -91 -27 -178 -233 -43 -100 -114 -270 -160
-377 -98 -232 -129 -323 -154 -456 -48 -249 -51 -503 -11 -1039 11 -148 20
-340 20 -425 l0 -155 -245 0 c-233 0 -246 1 -251 19 -9 26 3 302 27 631 23
330 25 679 4 839 -18 137 -62 313 -103 411 -119 287 -297 705 -309 726 -33 56
-116 76 -174 42 -21 -13 -80 -103 -211 -322 -161 -272 -181 -309 -180 -348 0
-50 29 -95 69 -112 32 -12 274 -63 280 -58 7 7 51 242 47 249 -3 5 -16 8 -29
8 -13 0 -26 3 -29 8 -2 4 18 45 46 91 38 63 53 80 59 68 31 -54 213 -502 233
-571 66 -225 76 -539 37 -1064 -11 -155 -21 -363 -21 -462 0 -136 -3 -182 -12
-184 -7 -2 -62 -11 -123 -21 -137 -20 -396 -83 -535 -128 l-105 -34 -58 39
c-61 42 -273 148 -294 148 -19 0 -16 17 17 116 51 151 109 398 135 577 110
764 -19 1551 -376 2282 -220 453 -489 826 -864 1201 -237 237 -437 402 -706
582 -629 422 -1367 687 -2089 751 -173 15 -468 21 -620 11z m2890 -1886 c490
-99 901 -451 1075 -919 316 -853 -135 -1890 -1010 -2321 -429 -210 -885 -247
-1290 -104 -155 55 -155 56 -4 63 304 14 590 99 847 253 541 323 903 878 973
1494 15 135 6 374 -20 502 -91 448 -345 803 -733 1019 l-73 41 80 -7 c44 -3
114 -13 155 -21z m-2522 -84 c166 -21 363 -96 503 -191 194 -132 362 -354 432
-574 44 -137 52 -192 51 -355 -1 -133 -5 -169 -27 -252 -187 -704 -956 -1054
-1612 -734 -680 332 -844 1209 -329 1755 251 266 616 397 982 351z m12602
-861 c210 -36 485 -144 674 -266 455 -293 781 -773 888 -1307 30 -149 33 -491
5 -631 -123 -619 -545 -1053 -1147 -1182 -66 -14 -130 -18 -290 -18 -113 0
-227 4 -255 8 l-50 9 110 28 c123 31 180 52 287 106 402 202 676 569 769 1032
26 129 35 367 20 502 -50 433 -235 823 -544 1147 -266 277 -603 469 -971 552
-80 18 -80 18 -43 26 142 28 359 26 547 -6z m-2085 -823 c166 -50 289 -122
416 -243 450 -430 407 -1180 -90 -1553 -163 -123 -338 -186 -543 -197 -183 -9
-351 26 -508 108 -612 318 -731 1164 -231 1642 91 87 140 122 247 175 158 80
264 102 469 98 128 -3 163 -7 240 -30z m-6658 -2061 c422 -68 767 -383 881
-803 23 -87 26 -114 26 -272 0 -159 -3 -184 -27 -275 -63 -234 -208 -451 -393
-590 -199 -150 -416 -224 -660 -225 -314 -1 -585 116 -802 344 -125 132 -209
282 -260 466 -25 87 -27 110 -27 280 0 172 2 192 28 284 151 543 679 881 1234
791z m4135 -19 c188 -48 366 -151 504 -291 136 -139 230 -303 282 -493 23 -87
26 -114 26 -272 0 -159 -3 -184 -27 -275 -131 -485 -558 -815 -1057 -815 -302
0 -561 108 -775 324 -140 140 -229 293 -281 478 -36 126 -45 363 -19 489 91
451 432 789 882 874 119 22 340 14 465 -19z m-1812 4 c200 -24 548 -95 568
-114 2 -3 -18 -30 -46 -61 -63 -68 -147 -195 -197 -294 -154 -309 -177 -715
-60 -1041 163 -451 536 -773 1015 -876 120 -26 401 -26 519 0 248 53 466 162
634 317 50 45 71 59 77 49 25 -40 28 -412 5 -565 -64 -420 -262 -805 -585
-1139 -499 -515 -1230 -841 -2037 -907 -181 -15 -596 -6 -763 15 -1125 147
-2042 785 -2363 1646 -39 104 -70 221 -94 345 -16 85 -30 436 -19 479 l6 25
80 -55 c233 -161 513 -241 800 -231 343 12 638 136 884 368 230 218 366 480
411 794 53 364 -50 735 -286 1032 -28 35 -50 66 -47 68 9 10 237 68 368 94
130 27 327 54 465 65 90 7 578 -3 665 -14z m-4512 -3110 c425 -46 803 -263
1041 -596 67 -94 165 -286 201 -394 279 -832 -139 -1849 -970 -2356 -214 -130
-453 -218 -720 -265 -110 -20 -412 -17 -525 3 -151 29 -264 66 -400 132 -294
144 -511 359 -658 652 -113 225 -166 462 -167 736 -1 788 486 1546 1221 1903
322 155 658 219 977 185z m8631 -21 c305 -50 591 -175 862 -375 131 -96 353
-318 450 -449 329 -444 479 -974 414 -1468 -47 -360 -186 -648 -430 -893 -169
-170 -348 -279 -575 -352 -175 -56 -253 -67 -485 -66 -188 0 -223 3 -335 27
-542 115 -1020 448 -1340 932 -263 400 -387 878 -339 1313 83 763 629 1297
1384 1356 91 7 268 -5 394 -25z"/>
<path d="M4174 14035 c-174 -38 -329 -174 -392 -344 -33 -89 -41 -222 -18
-311 27 -108 72 -188 150 -266 222 -223 563 -227 781 -9 165 165 201 412 93
635 -42 88 -160 205 -248 248 -117 57 -244 74 -366 47z"/>
<path d="M14465 12533 c-219 -32 -390 -180 -450 -387 -11 -36 -17 -94 -17
-146 0 -156 53 -283 166 -396 112 -112 235 -164 389 -164 284 0 507 206 532
492 23 256 -156 512 -405 582 -60 16 -168 26 -215 19z"/>
<path d="M7872 10576 c-209 -51 -391 -233 -447 -447 -26 -99 -17 -262 20 -354
70 -175 185 -290 360 -360 92 -37 254 -46 355 -20 218 57 399 244 445 461 68
321 -130 638 -450 719 -71 18 -209 18 -283 1z"/>
<path d="M11990 10649 c-244 -27 -454 -211 -515 -454 -19 -76 -19 -214 0 -290
52 -203 209 -368 410 -431 78 -24 96 -26 203 -21 83 3 134 11 175 25 285 103
457 408 393 696 -69 310 -349 510 -666 475z"/>
<path d="M5980 7346 c-281 -60 -565 -255 -771 -529 -119 -159 -196 -317 -246
-506 -33 -125 -38 -338 -9 -441 125 -453 623 -554 1115 -226 393 261 658 739
638 1146 -14 271 -144 460 -373 541 -76 27 -260 35 -354 15z"/>
<path d="M13794 7279 c-293 -34 -486 -271 -487 -599 -1 -325 149 -656 424
-931 249 -249 542 -381 815 -367 216 11 374 111 465 293 116 234 88 546 -76
863 -76 145 -153 250 -275 372 -265 265 -587 402 -866 369z"/>
</g>
</svg>
